<svg width="359" height="328" viewBox="0 0 359 328" fill="none" xmlns="http://www.w3.org/2000/svg">
<path d="M276.843 91.0762L277.981 92.0538L276.843 91.0762ZM357.685 325.779C358.505 325.66 359.073 324.899 358.955 324.079L357.02 310.719C356.901 309.899 356.14 309.33 355.32 309.449C354.501 309.568 353.932 310.329 354.051 311.149L355.771 323.025L343.894 324.744C343.075 324.863 342.506 325.624 342.625 326.444C342.744 327.264 343.505 327.832 344.324 327.714L357.685 325.779ZM1.53454 0.0349899C0.928807 1.47836 0.745325 2.92117 1.07114 4.31987C1.39517 5.7109 2.18895 6.91306 3.28692 7.94305C5.43444 9.95764 8.93966 11.4952 13.3336 12.732C22.1807 15.2223 35.5085 16.72 51.5043 17.7515C67.5314 18.785 86.3662 19.3567 106.281 19.9578C126.207 20.5593 147.224 21.1904 167.658 22.3415C188.094 23.4928 207.917 25.1628 225.45 27.8373C243.003 30.5149 258.165 34.186 269.329 39.298C280.534 44.429 287.357 50.8415 288.929 58.8169C290.506 66.8185 286.931 77.0359 275.706 90.0986L277.981 92.0538C289.39 78.7771 293.722 67.622 291.872 58.2367C290.017 48.8252 282.078 41.8364 270.578 36.5704C259.037 31.2854 243.551 27.5638 225.903 24.8716C208.235 22.1765 188.305 20.4999 167.827 19.3463C147.347 18.1925 126.29 17.5604 106.372 16.9592C86.442 16.3576 67.6627 15.7872 51.6973 14.7577C35.7005 13.7261 22.6575 12.2399 14.1464 9.84426C9.86129 8.63809 6.94066 7.25719 5.33943 5.7551C4.56303 5.02676 4.15172 4.32102 3.99292 3.63927C3.8359 2.96521 3.89185 2.17039 4.30082 1.19589L1.53454 0.0349899ZM275.706 90.0986C252.785 116.772 246.394 144.944 249.759 172.148C253.115 199.288 266.167 225.381 281.976 248.052C297.794 270.736 316.441 290.091 331.118 303.767C338.46 310.608 344.816 316.035 349.34 319.753C351.602 321.613 353.406 323.045 354.646 324.015C355.267 324.499 355.746 324.868 356.072 325.117C356.234 325.241 356.359 325.335 356.443 325.398C356.485 325.43 356.516 325.454 356.538 325.47C356.549 325.479 356.557 325.485 356.563 325.489C356.566 325.491 356.568 325.493 356.57 325.494C356.571 325.495 356.572 325.496 357.47 324.294C358.368 323.093 358.368 323.092 358.367 323.092C358.365 323.091 358.364 323.09 358.362 323.088C358.357 323.084 358.35 323.079 358.34 323.072C358.32 323.057 358.29 323.034 358.25 323.004C358.17 322.944 358.051 322.853 357.892 322.732C357.575 322.49 357.105 322.128 356.494 321.651C355.271 320.696 353.486 319.278 351.245 317.436C346.762 313.75 340.453 308.365 333.163 301.572C318.578 287.982 300.092 268.787 284.437 246.336C268.772 223.873 256.009 198.246 252.736 171.78C249.471 145.379 255.634 118.059 277.981 92.0538L275.706 90.0986Z" fill="#E6A800"/>
</svg>
